<?xml version="1.0" standalone="yes"?>

<svg version="1.1" viewBox="0.0 0.0 435.0 105.0" fill="none" stroke="none" stroke-linecap="square" stroke-miterlimit="10" xmlns="http://www.w3.org/2000/svg" xmlns:xlink="http://www.w3.org/1999/xlink"><clipPath id="p.0"><path d="m0 0l435.0 0l0 105.0l-435.0 0l0 -105.0z" clip-rule="nonzero"></path></clipPath><g clip-path="url(#p.0)"><path fill="#000000" fill-opacity="0.0" d="m0 0l435.0 0l0 105.0l-435.0 0z" fill-rule="nonzero"></path><path fill="#b45f06" d="m15.110459 15.085201l11.7137 60.807735l10.952131 0l8.594883 -40.677704l8.594883 40.677704l10.952126 0l11.713707 -60.807735l-10.843338 0l-7.1080017 43.267044l-8.667416 -43.267044l-9.211391 0l-8.703682 43.183517l-7.144268 -43.183517z" fill-rule="evenodd"></path><path fill="#b45f06" d="m99.681206 39.64217c2.2242737 0 3.940834 0.7331848 5.1496735 2.1995506c1.208847 1.4570847 1.8374481 3.5220566 1.8858032 6.194927l0 0.96055984l-14.578667 0c0.36265564 -3.006977 1.1886978 -5.317894 2.4781342 -6.9327507c1.297493 -1.6148567 2.9858475 -2.422287 5.065056 -2.422287zm0.036262512 -9.772671c-3.5781784 0 -6.7654953 0.9698448 -9.561958 2.9095268c-2.7883987 1.9304085 -4.944168 4.686802 -6.4673157 8.269184c-1.52314 3.5731049 -2.2847137 7.628811 -2.2847137 12.167118l0 1.1693802c0 6.7656937 1.8052063 12.181034 5.415619 16.246021c3.6184769 4.064987 8.304764 6.097481 14.058861 6.097481c3.2638779 0 6.2376404 -0.7146225 8.921272 -2.1438675c2.683632 -1.4385223 4.811203 -3.43853 6.382698 -6.0000305l-5.1496735 -6.6404037c-2.2726288 3.368927 -5.4277115 5.0533905 -9.465256 5.0533905c-2.6110992 0 -4.7709045 -0.89095306 -6.4794006 -2.6728668c-1.7004395 -1.78191 -2.719902 -4.148514 -3.0583801 -7.099804l24.986816 0l0 -4.9281006c0 -7.155487 -1.5432968 -12.682198 -4.629875 -16.580132c-3.0785217 -3.8979301 -7.301422 -5.846897 -12.668694 -5.846897z" fill-rule="evenodd"></path><path fill="#b45f06" d="m140.33464 39.683933c2.490219 0 4.363922 1.0533714 5.6211243 3.1601105c1.2572021 2.0974617 1.8858032 5.429264 1.8858032 9.995411c0 3.7587204 -0.25386047 6.556877 -0.7615814 8.394474c-1.0637817 3.8422508 -3.2880554 5.7633705 -6.672821 5.7633705c-3.3605804 0 -5.6815643 -1.5870132 -6.9629364 -4.7610435l0 -17.833038c1.2572021 -3.1461868 3.5540009 -4.719284 6.8904114 -4.719284zm-17.371094 -27.939816l0 64.14882l9.428986 0l0.4714508 -4.8028107c2.5385742 3.7587204 5.935425 5.6380844 10.190552 5.6380844c4.811203 0 8.558624 -2.0232162 11.242264 -6.069641c2.6836243 -4.055702 4.0254364 -9.703064 4.0254364 -16.942081l0 -0.6682167c0 -7.3503838 -1.3619537 -13.048786 -4.0858917 -17.095215c-2.715866 -4.055702 -6.4673157 -6.083557 -11.2543335 -6.083557c-3.9408264 0 -7.1200867 1.6287785 -9.537781 4.8863373l0 -23.011719z" fill-rule="evenodd"></path><path fill="#b45f06" d="m184.36075 14.24993c-3.7474213 0 -7.1281586 0.7239008 -10.142197 2.1717043c-3.0059967 1.4478035 -5.3148956 3.4617348 -6.9266815 6.041794c-1.6037445 2.5707798 -2.4056091 5.498869 -2.4056091 8.784269c0 6.320219 2.99794 11.345766 8.993805 15.076643c2.2001038 1.3642769 5.1859436 2.7517548 8.957535 4.1624336c3.7715912 1.4013977 6.3827057 2.737831 7.833313 4.0093c1.4506226 1.262188 2.1759186 3.0765839 2.1759186 5.443184c0 2.1717072 -0.725296 3.865448 -2.1759186 5.081234c-1.4506073 1.2064972 -3.4693756 1.8097534 -6.056305 1.8097534c-6.9629517 0 -10.444412 -3.3550072 -10.444412 -10.065018l-10.915863 0c0 3.9257736 0.87438965 7.378227 2.6231842 10.357361c1.7568512 2.9791336 4.303482 5.3271713 7.6398926 7.044121c3.3364105 1.7076645 7.0354767 2.5615005 11.0971985 2.5615005c5.8507996 0 10.504852 -1.4942093 13.962143 -4.4826202c3.457306 -2.9977036 5.1859436 -7.1276474 5.1859436 -12.389858c0 -4.733204 -1.4143372 -8.686821 -4.243042 -11.860847c-2.8286896 -3.1740303 -7.337677 -5.8329773 -13.526962 -7.976841c-3.3605957 -1.1693802 -5.9072266 -2.422287 -7.6398926 -3.7587204c-1.7246246 -1.3364334 -2.5869293 -2.9930534 -2.5869293 -4.969862c0 -2.1160202 0.73739624 -3.819044 2.2121887 -5.1090755c1.4747772 -1.2993088 3.5419006 -1.9489651 6.2013702 -1.9489651c2.7561646 0 4.895813 0.7749462 6.4189606 2.3248367c1.5231476 1.5406132 2.2847137 3.7030354 2.2847137 6.4872723l10.879593 0c0 -3.6473503 -0.8179779 -6.904907 -2.453949 -9.772671c-1.6279144 -2.8677654 -3.9166565 -5.0858746 -6.8662415 -6.6543274c-2.9495697 -1.577735 -6.3101654 -2.366601 -10.081757 -2.366601z" fill-rule="evenodd"></path><path fill="#b45f06" d="m216.23798 12.788205c-1.8132629 0 -3.247757 0.5846901 -4.303482 1.7540693c-1.0476685 1.1693802 -1.5715027 2.658947 -1.5715027 4.4687004c0 1.8375969 0.5359192 3.3410854 1.6077576 4.5104637c1.0799103 1.1693802 2.502304 1.7540703 4.267227 1.7540703c1.7649078 0 3.1832886 -0.5846901 4.255127 -1.7540703c1.0799103 -1.1693783 1.6198578 -2.6728668 1.6198578 -4.5104637c0 -1.8097534 -0.53189087 -3.2993202 -1.5956726 -4.4687004c-1.063797 -1.1693792 -2.490219 -1.7540693 -4.279312 -1.7540693zm-5.2584686 17.916565l0 45.188164l10.516937 0l0 -45.188164z" fill-rule="evenodd"></path><path fill="#b45f06" d="m232.19472 19.595665l0 11.109106l-5.7299194 0l0 8.853872l5.7299194 0l0 24.348152c0.14506531 8.547611 3.8924713 12.821415 11.242249 12.821415c2.1759186 0 4.291397 -0.36195374 6.3464355 -1.0858536l0 -9.146217c-0.8945465 0.19489288 -1.9220581 0.29234314 -3.08255 0.29234314c-1.5715027 0 -2.6352844 -0.36195374 -3.1913452 -1.0858536c-0.55607605 -0.72389984 -0.83410645 -1.9211235 -0.83410645 -3.5916634l0 -22.552322l6.709076 0l0 -8.853872l-6.709076 0l0 -11.109106z" fill-rule="evenodd"></path><path fill="#b45f06" d="m272.08658 39.64217c2.2242737 0 3.9408264 0.7331848 5.1496887 2.1995506c1.2088318 1.4570847 1.8374329 3.5220566 1.8857727 6.194927l0 0.96055984l-14.578644 0c0.36264038 -3.006977 1.1886902 -5.317894 2.478119 -6.9327507c1.2975159 -1.6148567 2.9858398 -2.422287 5.0650635 -2.422287zm0.036254883 -9.772671c-3.5781555 0 -6.7654724 0.9698448 -9.561951 2.9095268c-2.788391 1.9304085 -4.9441833 4.686802 -6.4673157 8.269184c-1.5231476 3.5731049 -2.2847137 7.628811 -2.2847137 12.167118l0 1.1693802c0 6.7656937 1.8052216 12.181034 5.415634 16.246021c3.6184692 4.064987 8.304749 6.097481 14.058838 6.097481c3.2638855 0 6.2376404 -0.7146225 8.921295 -2.1438675c2.6836243 -1.4385223 4.8111877 -3.43853 6.3826904 -6.0000305l-5.1496887 -6.6404037c-2.2726135 3.368927 -5.427704 5.0533905 -9.4652405 5.0533905c-2.6111145 0 -4.7709045 -0.89095306 -6.4794006 -2.6728668c-1.7004395 -1.78191 -2.7199097 -4.148514 -3.0583801 -7.099804l24.986816 0l0 -4.9281006c0 -7.155487 -1.5433044 -12.682198 -4.629883 -16.580132c-3.0785217 -3.8979301 -7.301422 -5.846897 -12.668701 -5.846897z" fill-rule="evenodd"></path><path fill="#b45f06" d="m316.94678 24.607292c3.6748962 0 6.503601 1.65662 8.4861145 4.969862c1.9824829 3.313242 2.973755 8.157816 2.973755 14.533716l0 2.9652138c-0.02420044 6.320217 -1.0154419 11.132305 -2.973755 14.436268c-1.9583435 3.2946777 -4.762848 4.942024 -8.413574 4.942024c-3.723236 0 -6.576111 -1.7123108 -8.558624 -5.136921c-1.9824829 -3.4246101 -2.973755 -8.241341 -2.973755 -14.450188l0 -2.9652138c0.02420044 -6.320217 1.0275269 -11.113743 3.0100403 -14.380585c1.9824829 -3.2761173 4.799103 -4.914177 8.449799 -4.914177zm0 -10.357362c-4.400177 0 -8.312805 1.2204227 -11.737854 3.661271c-3.4169922 2.4315662 -6.0643616 5.925783 -7.942108 10.482653c-1.86969 4.5475864 -2.804535 9.814436 -2.804535 15.800547l0 3.0069733c0.024169922 5.846897 0.9791565 11.020935 2.8649597 15.522121c1.8858032 4.4918976 4.5452576 7.9489975 7.9783936 10.3712845c3.4331055 2.422287 7.337677 3.6334305 11.713684 3.6334305c4.4243774 0 8.345062 -1.2250671 11.762054 -3.6751938c3.4250793 -2.4501266 6.056305 -5.9304276 7.8937683 -10.440891c1.8374329 -4.5104637 2.7561646 -9.758751 2.7561646 -15.744858l0 -2.714634c0 -5.958267 -0.9388733 -11.211193 -2.8166199 -15.75878c-1.8696594 -4.5568676 -4.517029 -8.0510845 -7.942108 -10.482653c-3.4169922 -2.4408484 -7.325592 -3.661271 -11.7258 -3.661271z" fill-rule="evenodd"></path><path fill="#b45f06" d="m363.9104 39.683933c2.466034 0 4.3437805 1.1415405 5.633209 3.424614c1.2974854 2.2830734 1.946228 5.5267105 1.946228 9.730907c0 9.438564 -2.5022888 14.157845 -7.5069275 14.157845c-3.2880554 0 -5.572754 -1.489563 -6.854126 -4.4687004l0 -18.501255c1.2330017 -2.895607 3.4935608 -4.3434105 6.781616 -4.3434105zm2.7561646 -9.814434c-4.085907 0 -7.3981323 1.7540703 -9.936707 5.262207l-0.36264038 -4.426935l-9.719116 0l0 62.561806l10.480682 0l0 -21.299416c2.441864 3.174034 5.645294 4.7610474 9.610291 4.7610474c4.6661377 0 8.369263 -2.0928192 11.109283 -6.2784576c2.748108 -4.194916 4.122162 -9.772671 4.122162 -16.733265l0 -0.6264534c0 -7.2390137 -1.3417969 -12.918858 -4.0254517 -17.039528c-2.6836243 -4.120672 -6.4431458 -6.1810074 -11.278503 -6.1810074z" fill-rule="evenodd"></path><path fill="#b45f06" d="m403.36707 29.8695c-4.6661377 0 -8.44577 1.3457165 -11.338959 4.0371437c-2.8851013 2.682148 -4.327667 6.027874 -4.327667 10.037174c0 6.8770676 4.6661377 11.443214 13.998413 13.698448c2.804535 0.6682167 4.8394165 1.4292374 6.1046753 2.2830734c1.2733154 0.8445473 1.9099731 2.00465 1.9099731 3.480297c0 1.4199562 -0.5157776 2.570774 -1.5473328 3.4524498c-1.023468 0.8723984 -2.5385742 1.3085938 -4.545227 1.3085938c-2.151764 0 -3.8683167 -0.57077026 -5.1496887 -1.7123032c-1.2813721 -1.1415405 -1.9704285 -2.7842407 -2.0671387 -4.9281006l-9.936676 0c0 2.7285538 0.72528076 5.2714844 2.1759033 7.628807c1.4506226 2.3480377 3.4492493 4.1995544 5.99588 5.554558c2.5546875 1.3457108 5.4760437 2.01857 8.764099 2.01857c4.859558 0 8.824585 -1.2714691 11.89505 -3.8144073c3.070465 -2.5522156 4.6056824 -5.8886642 4.6056824 -10.009331c0 -5.7633705 -2.7682495 -9.814438 -8.304749 -12.153194c-1.789093 -0.7517433 -3.9891968 -1.4246025 -6.600281 -2.0185738c-2.6111145 -0.6032486 -4.468689 -1.3132286 -5.5727844 -2.12994c-1.0960083 -0.82598877 -1.644043 -1.9072037 -1.644043 -3.243637c0 -1.41996 0.48355103 -2.5893402 1.4506226 -3.5081367c0.96707153 -0.91880035 2.3330688 -1.3781967 4.097992 -1.3781967c2.0550232 0 3.5660706 0.5661278 4.5331726 1.6983833c0.96707153 1.1229782 1.450592 2.547577 1.450592 4.2738037l10.480682 0c0 -4.315567 -1.4949341 -7.8237076 -4.4848022 -10.524418c-2.981842 -2.7007084 -6.962982 -4.0510635 -11.94339 -4.0510635z" fill-rule="evenodd"></path></g></svg>

